<svg id="a_2.svg" xmlns="http://www.w3.org/2000/svg" width="40" height="37" viewBox="0 0 40 37">
  <defs>
    <style>
      .cls-1 {
        fill: #999;
      }

      .cls-1, .cls-2 {
        fill-rule: evenodd;
      }

      .cls-2 {
        fill: #66b127;
      }
    </style>
  </defs>
  <path id="Shape_87_копия" data-name="Shape 87 копия" class="cls-1" d="M1477.01,537.991h-34.02a2.959,2.959,0,0,0-2.98,2.688v31.028a3.072,3.072,0,0,0,2.98,3.281h17.79a1.094,1.094,0,0,0,0-2.188h-17.79a0.926,0.926,0,0,1-.79-1.093V548.928h35.6v9.842a1.1,1.1,0,0,0,2.19,0V540.679A2.959,2.959,0,0,0,1477.01,537.991Zm-34.81,8.749v-6.053a0.864,0.864,0,0,1,.79-0.509h34.02a0.859,0.859,0,0,1,.79.5v6.061h-35.6Z" transform="translate(-1440 -538)"/>
  <path id="Shape_87_копия_2" data-name="Shape 87 копия 2" class="cls-2" d="M1446.38,544.553h2.19v-2.188h-2.19v2.188Zm4.38,0h2.18v-2.188h-2.18v2.188Zm4.37,0h2.18v-2.188h-2.18v2.188Zm17.69,20.753,1.44-1.448a1.072,1.072,0,0,0,.28-1.074,1.1,1.1,0,0,0-.8-0.764l-9.62-2.222a1.11,1.11,0,0,0-1.02.293,1.07,1.07,0,0,0-.29,1.018l2.22,9.625a1.086,1.086,0,0,0,1.83.527l1.45-1.447,3.85,3.854a1.118,1.118,0,0,0,.78.32,1.078,1.078,0,0,0,.77-0.32l2.96-2.962a1.089,1.089,0,0,0,0-1.547Zm0.12,6.042-3.85-3.854a1.114,1.114,0,0,0-.78-0.32,1.074,1.074,0,0,0-.77.32l-0.83.826-1.38-6,5.99,1.384-0.82.826a1.088,1.088,0,0,0,0,1.546l3.85,3.854Zm-18.91-18.139a1.086,1.086,0,0,0-1.09-1.094h-5.46a1.1,1.1,0,0,0-1.1,1.094v5.468a1.1,1.1,0,0,0,1.1,1.093h5.46a1.086,1.086,0,0,0,1.09-1.093v-5.468Zm-2.18,4.374h-3.28V554.3h3.28v3.281Zm1.09,4.375h-5.46a1.1,1.1,0,0,0-1.1,1.093v5.468a1.1,1.1,0,0,0,1.1,1.094h5.46a1.086,1.086,0,0,0,1.09-1.094v-5.468A1.086,1.086,0,0,0,1452.94,561.958Zm-1.09,5.468h-3.28v-3.281h3.28v3.281Zm12.02-8.749v-5.468a1.093,1.093,0,0,0-1.09-1.094h-5.47a1.093,1.093,0,0,0-1.09,1.094v5.468a1.093,1.093,0,0,0,1.09,1.093h5.47A1.093,1.093,0,0,0,1463.87,558.677Zm-2.18-1.094h-3.28V554.3h3.28v3.281Zm-1.1,6.562a1.094,1.094,0,1,0,0-2.187h-3.28a1.093,1.093,0,0,0-1.09,1.093v5.468a1.093,1.093,0,0,0,1.09,1.094h4.38a1.094,1.094,0,0,0,0-2.187h-3.28v-3.281h2.18Zm6.56-9.843h4.37a1.094,1.094,0,1,0,0-2.187h-4.37A1.094,1.094,0,0,0,1467.15,554.3Zm0,4.375h4.37a1.094,1.094,0,1,0,0-2.187h-4.37A1.094,1.094,0,0,0,1467.15,558.677Z" transform="translate(-1440 -538)"/>
</svg>

