<svg id="a_1.svg" xmlns="http://www.w3.org/2000/svg" width="37.97" height="43" viewBox="0 0 37.97 43">
  <defs>
    <style>
      .cls-1 {
        fill: #999;
      }

      .cls-1, .cls-2 {
        fill-rule: evenodd;
      }

      .cls-2 {
        fill: #66b127;
      }
    </style>
  </defs>
  <path id="Shape_55_копия" data-name="Shape 55 копия" class="cls-1" d="M1385.75,572.367c-0.01-.038-0.03-0.074-0.04-0.112s-0.02-.066-0.03-0.1a0.455,0.455,0,0,1-.05-0.09c-0.03-.036-0.04-0.072-0.07-0.106a0.012,0.012,0,0,0-.01-0.013,0.38,0.38,0,0,0-.07-0.076c-0.02-.024-0.04-0.05-0.06-0.073l-5.06-4.7a1.156,1.156,0,0,0-1.62.051,1.126,1.126,0,0,0,.05,1.6l4.04,3.755c-2.17,1.453-4.05,2.244-5.37,2.244h-0.01a3.786,3.786,0,0,1-1.73-.408h0q-0.045-.031-0.09-0.057a47.122,47.122,0,0,1-13.66-11.712l-0.38-.482a46.481,46.481,0,0,1-8.12-15.966,0.181,0.181,0,0,1-.02-0.069,2.964,2.964,0,0,1-.02-1.694,14.241,14.241,0,0,1,2.7-4.287l3.04,4.881a1.158,1.158,0,0,0,1.58.368,1.124,1.124,0,0,0,.37-1.558l-3.77-6.044a1.2,1.2,0,0,0-.23-0.251,0.163,0.163,0,0,0-.04-0.05,1.155,1.155,0,0,0-1.62.016,17.682,17.682,0,0,0-4.18,6.154,5.139,5.139,0,0,0-.03,3.107,48.953,48.953,0,0,0,8.54,16.783l0.37,0.482a49.652,49.652,0,0,0,14.36,12.3,5.882,5.882,0,0,0,2.93.745h0.01c2.09,0,4.73-1.17,7.86-3.478,0.04-.026.06-0.058,0.1-0.087a0.289,0.289,0,0,1,.05-0.046s0-.006.01-0.009c0.03-.038.06-0.079,0.09-0.12,0.01-.021.03-0.04,0.04-0.061a0.691,0.691,0,0,0,.07-0.123l0.03-.078a0.518,0.518,0,0,0,.03-0.122l0.03-.088V572.67a0.259,0.259,0,0,0,.01-0.087,0.577,0.577,0,0,0-.02-0.129A0.259,0.259,0,0,0,1385.75,572.367Zm-20.02-13.545c0.01,0.012.01,0.023,0.02,0.034s0.03,0.04.05,0.059m11.51,4.836-11.32-4.684a1.1,1.1,0,0,0,.31.146A1.132,1.132,0,0,1,1365.99,559.067Z" transform="translate(-1351.03 -534)"/>
  <path id="Shape_55_копия_7" data-name="Shape 55 копия 7" class="cls-2" d="M1375.35,555.253a1.159,1.159,0,0,0,1.6.275,1.123,1.123,0,0,0,.27-1.577l-3.58-5.042,4.76-3.276a1.114,1.114,0,0,0,.47-0.732,1.072,1.072,0,0,0-.19-0.848l-0.93-1.316,8.69,0.755-2.22,8.347-0.93-1.314a1.16,1.16,0,0,0-1.6-.274,1.123,1.123,0,0,0-.27,1.577l1.81,2.555a1.587,1.587,0,0,0,2.78-.377l0.03-.089,2.81-10.592a1.565,1.565,0,0,0-1.44-2.021l-11.03-.957a0.756,0.756,0,0,0-.1,0,1.579,1.579,0,0,0-1.4.835,1.557,1.557,0,0,0,.11,1.622l1.16,1.625-4.35,2.993a1.679,1.679,0,0,0-.34,2.368Zm-9.55,3.662a37.821,37.821,0,0,0,5.4,5.827,0.609,0.609,0,0,0,.11.076c2.72,1.718,4.77.368,6-1.067m0,0c0.25-.292.91-1.1,1.19-1.442a0.1,0.1,0,0,1,.03-0.039,1.26,1.26,0,0,1,.71-0.521,0.8,0.8,0,0,1,.55.231,62.79,62.79,0,0,1,6.04,5.437q0.045,0.057.09,0.108c1.1,1.077.76,1.722,0.64,1.934a1.13,1.13,0,0,0,.49,1.527,1.147,1.147,0,0,0,1.54-.478c0.37-.7,1-2.524-1-4.538a67.128,67.128,0,0,0-6.35-5.744,3,3,0,0,0-2.27-.724,3.455,3.455,0,0,0-2.26,1.4c-0.3.375-.92,1.127-1.14,1.385-1.38,1.6-2.33,1.066-2.98.662a35.786,35.786,0,0,1-4.95-5.377c-0.02-.03-0.05-0.06-0.07-0.088,0,0,0-.006-0.01-0.009a0.255,0.255,0,0,0-.05-0.071,35.585,35.585,0,0,1-4.07-6.087c-0.24-.713-0.53-1.759,1.37-2.691,0.04-.015.09-0.035,0.15-0.063a8.781,8.781,0,0,0,2.72-1.622,2.965,2.965,0,0,0,.65-3.542,67.63,67.63,0,0,0-4.81-7.84,3.39,3.39,0,0,0-4.73-.98l1.26,1.888a1.082,1.082,0,0,1,1.61.42,65.091,65.091,0,0,1,4.61,7.5,0.72,0.72,0,0,1-.2.951,7.077,7.077,0,0,1-2,1.139c-0.12.052-.21,0.092-0.26,0.116-1.72.838-3.55,2.473-2.52,5.5a0.557,0.557,0,0,0,.05.116,37.244,37.244,0,0,0,4.39,6.614" transform="translate(-1351.03 -534)"/>
</svg>

