<svg id="a_3.svg" xmlns="http://www.w3.org/2000/svg" width="47.97" height="34" viewBox="0 0 47.97 34">
  <defs>
    <style>
      .cls-1 {
        fill: #999;
      }

      .cls-1, .cls-2 {
        fill-rule: evenodd;
      }

      .cls-2 {
        fill: #66b127;
      }
    </style>
  </defs>
  <path id="Shape_87_копия_5" data-name="Shape 87 копия 5" class="cls-1" d="M1555.86,569.138h-13.63v-2.344h10.2V543.347H1527.3v23.447h1.2v2.344h-2.34a1.156,1.156,0,0,1-1.14-1.172V542.174a1.156,1.156,0,0,1,1.14-1.172h27.42a1.156,1.156,0,0,1,1.14,1.172v24.62a6.921,6.921,0,0,0,1.23,0Zm13.82,0h2.17a1.164,1.164,0,0,0,1.15-1.172v-9.379a1.166,1.166,0,0,0-.12-0.492,0.04,0.04,0,0,0-.01-0.032l-3.42-7.034a1.135,1.135,0,0,0-1.02-.648h-10.28a1.173,1.173,0,0,0,0,2.345h5.71v5.861a1.156,1.156,0,0,0,1.14,1.172h5.71v7.035h-1.03C1569.66,566.769,1569.68,569.16,1569.68,569.138Zm-1.96-16.412,2.29,4.689h-3.87v-4.689h1.58Z" transform="translate(-1525.03 -541)"/>
  <path id="Эллипс_1_копия_2" data-name="Эллипс 1 копия 2" class="cls-2" d="M1542.15,541V552.88l-1.65-1.13a1.1,1.1,0,0,0-.63-0.2,1.156,1.156,0,0,0-.64.2l-1.65,1.13V541m-2.28,0V555.07a1.176,1.176,0,0,0,.6,1.034,1.13,1.13,0,0,0,1.18-.058l2.79-1.911,2.79,1.911a1.117,1.117,0,0,0,1.17.058,1.185,1.185,0,0,0,.61-1.034V541m-9.08,22.274a5.864,5.864,0,1,1-5.71,5.862A5.791,5.791,0,0,1,1535.36,563.276Zm0,2.345a3.518,3.518,0,1,1-3.43,3.517A3.479,3.479,0,0,1,1535.36,565.621Zm27.45-2.345a5.864,5.864,0,1,1-5.71,5.862A5.791,5.791,0,0,1,1562.81,563.276Zm0,2.345a3.518,3.518,0,1,1-3.43,3.517A3.47,3.47,0,0,1,1562.81,565.621Z" transform="translate(-1525.03 -541)"/>
</svg>

